<?xml version="1.0" encoding="UTF-8"?><svg id="Layer_1" xmlns="http://www.w3.org/2000/svg" xmlns:xlink="http://www.w3.org/1999/xlink" viewBox="0 0 250 250"><defs><linearGradient id="linear-gradient" x1="446.33" y1="-217.98" x2="517.89" y2="-244.56" gradientTransform="translate(-399.36 343.01)" gradientUnits="userSpaceOnUse"><stop offset="0" stop-color="#005ab9"/><stop offset="1" stop-color="#1e3764"/></linearGradient><linearGradient id="linear-gradient-2" x1="530.28" y1="-236.05" x2="606.25" y2="-261.97" gradientTransform="translate(-399.36 343.01)" gradientUnits="userSpaceOnUse"><stop offset="0" stop-color="#fba900"/><stop offset="1" stop-color="#ffd800"/></linearGradient></defs><circle cx="193.74" cy="203.73" r="4.67" fill="#fff"/><g><path d="M27.19,185.24v-28.26h8.68c6.34,0,10.42,2.38,10.42,7.3,.09,2.37-1.09,4.61-3.11,5.85,2.65,1.17,4.3,3.85,4.16,6.74,0,5.69-4.16,8.35-10.62,8.35h-9.53Zm5.61-16.49h4.16c2.54,0,3.63-1.25,3.63-3.55,0-2.47-1.98-3.27-4.65-3.27h-3.15v6.83Zm0,11.58h3.47c3.4,0,5.37-.87,5.37-3.47s-1.74-3.72-4.89-3.72h-3.96v7.19Zm25.46,5.41c-5.53,0-8.32-2.7-8.32-6.34,0-3.99,3.27-6.34,8.11-6.38,1.2,.02,2.41,.13,3.6,.32v-.97c0-2.47-1.42-3.63-4.12-3.63-1.82-.02-3.63,.31-5.33,.97l-1.01-4.34c2.23-.81,4.58-1.22,6.95-1.21,5.93,0,8.88,3.15,8.88,8.6v11.19c-2.77,1.23-5.77,1.82-8.8,1.74l.03,.05Zm3.39-4.56v-4.34c-.94-.21-1.9-.32-2.87-.32-1.86,0-3.31,.73-3.31,2.61,0,1.74,1.21,2.61,3.35,2.61,.97,.03,1.94-.16,2.82-.56v.02Zm9.33,4.08v-19.36c2.9-1.15,6-1.74,9.13-1.74,5.9,0,9.28,2.91,9.28,8.28v12.83h-5.57v-12.47c0-2.79-1.29-4.08-3.75-4.08-1.22-.02-2.43,.23-3.55,.73v15.79l-5.53,.02Zm37.88-19.9l-1.05,4.4c-1.44-.62-2.99-.97-4.56-1.01-3.27,0-5.05,2.3-5.05,6.08,0,4.16,1.86,6.3,5.33,6.3,1.55-.04,3.07-.4,4.48-1.05l.87,4.48c-1.83,.81-3.81,1.21-5.81,1.17-6.7,0-10.58-4.16-10.58-10.74s3.84-10.86,10.26-10.86c2.09,0,4.15,.4,6.08,1.21l.03,.03Zm12.04,20.39c-6.22,0-10.09-4.34-10.09-10.82s3.87-10.78,10.09-10.78,10.06,4.34,10.06,10.78-3.79,10.8-10.06,10.8v.02Zm0-4.6c2.87,0,4.34-2.38,4.34-6.22s-1.49-6.17-4.34-6.17-4.4,2.38-4.4,6.17,1.57,6.2,4.4,6.2v.02Zm13.28,4.12v-19.36c2.9-1.15,6-1.74,9.13-1.74,5.9,0,9.28,2.91,9.28,8.28v12.83h-5.57v-12.47c0-2.79-1.29-4.08-3.75-4.08-1.22-.02-2.43,.23-3.55,.73v15.79l-5.53,.02Zm30.97,.49c-4.8,0-7.27-2.61-7.27-7.95v-8.68h-2.74v-4.44h2.74v-4.48l5.57-.29v4.77h4.48v4.44h-4.48v8.64c0,2.34,.97,3.47,2.79,3.47,.72,0,1.44-.08,2.14-.24l.29,4.48c-1.16,.22-2.34,.31-3.52,.27v.02Zm14.06,0c-5.53,0-8.32-2.7-8.32-6.34,0-3.99,3.27-6.34,8.11-6.38,1.2,.02,2.41,.13,3.6,.32v-.97c0-2.47-1.42-3.63-4.12-3.63-1.82-.02-3.63,.31-5.33,.97l-1.01-4.34c2.23-.81,4.58-1.22,6.95-1.21,5.93,0,8.88,3.15,8.88,8.6v11.18c-2.75,1.24-5.74,1.85-8.76,1.78v.02Zm3.39-4.56v-4.34c-.94-.21-1.9-.32-2.87-.32-1.86,0-3.31,.73-3.31,2.61,0,1.74,1.21,2.61,3.35,2.61,.97,.03,1.94-.17,2.82-.57v.03Zm24.47-15.82l-1.05,4.4c-1.44-.62-2.99-.97-4.56-1.01-3.27,0-5.05,2.3-5.05,6.08,0,4.16,1.86,6.3,5.33,6.3,1.55-.04,3.07-.4,4.48-1.05l.87,4.48c-1.83,.81-3.81,1.21-5.81,1.17-6.7,0-10.58-4.16-10.58-10.74s3.84-10.86,10.26-10.86c2.1-.01,4.17,.4,6.1,1.21v.03Zm12.24,20.39c-4.8,0-7.27-2.61-7.27-7.95v-8.68h-2.74v-4.44h2.74v-4.48l5.57-.29v4.77h4.48v4.44h-4.48v8.64c0,2.34,.97,3.47,2.79,3.47,.72,0,1.44-.08,2.14-.24l.29,4.48c-1.16,.22-2.33,.31-3.51,.26v.03Z" fill="#1e3764"/><path d="M66.05,142.86c29.48,0,44.22-19.65,58.95-39.3H27.19v39.3h38.86Z" fill="url(#linear-gradient)"/><path d="M183.95,64.24c-29.48,0-44.22,19.65-58.95,39.3h97.81v-39.3h-38.86Z" fill="url(#linear-gradient-2)"/></g></svg>