<?xml version="1.0" encoding="UTF-8"?><svg id="Layer_1" xmlns="http://www.w3.org/2000/svg" viewBox="0 0 250 250"><circle cx="193.74" cy="203.73" r="4.67" fill="#fff"/><g><g><path d="M30.19,53.82V196.18c0,6.81,5.58,12.39,12.39,12.39H127.63c64.3,0,92.18-35.99,92.18-83.75s-27.88-83.38-92.18-83.38H42.58c-6.81,0-12.39,5.58-12.39,12.39Z" fill="#fff"/><path d="M87.12,76.37v105.19h45.78c41.57,0,59.59-23.48,59.59-56.68s-18.03-56.43-59.59-56.43h-37.85c-4.4,0-7.93,3.59-7.93,7.93Z" fill="#c06"/><path d="M127.63,197.23H53.67c-6.57,0-11.89-5.33-11.89-11.89V64.73c0-6.57,5.33-11.89,11.89-11.89H127.63c70.19,0,80.66,45.16,80.66,72.04,0,46.65-28.68,72.35-80.66,72.35ZM53.67,56.8c-4.4,0-7.93,3.53-7.93,7.93v120.61c0,4.4,3.53,7.93,7.93,7.93H127.63c49.43,0,76.69-24.28,76.69-68.39,0-59.22-48.07-68.08-76.69-68.08H53.67Z"/></g><g><path d="M103.23,110.69c1.61,0,3.1,.25,4.52,.74,1.42,.5,2.6,1.3,3.65,2.29,.99,1.05,1.8,2.35,2.42,3.84,.56,1.55,.87,3.35,.87,5.45,0,1.86-.25,3.53-.68,5.08-.5,1.55-1.18,2.91-2.11,4.03s-2.11,1.98-3.53,2.66c-1.42,.62-3.1,.99-5.02,.99h-10.84v-25.15h10.72v.06Zm-.37,20.5c.81,0,1.55-.12,2.35-.37,.74-.25,1.42-.68,1.98-1.3,.56-.62,1.05-1.36,1.42-2.35,.37-.99,.56-2.11,.56-3.53,0-1.24-.12-2.42-.37-3.41-.25-.99-.68-1.92-1.24-2.6s-1.3-1.3-2.23-1.67-2.04-.56-3.41-.56h-3.96v15.86h4.89v-.06Z" fill="#fff"/><path d="M137.05,110.69v4.65h-13.26v5.39h12.2v4.27h-12.2v6.13h13.57v4.65h-19.08v-25.15h18.77v.06Z" fill="#fff"/><path d="M156,110.69l9.42,25.15h-5.76l-1.92-5.58h-9.42l-1.98,5.58h-5.58l9.48-25.15h5.76Zm.31,15.42l-3.16-9.23h-.06l-3.28,9.23h6.5Z" fill="#fff"/><path d="M174.4,110.69v20.5h12.27v4.65h-17.78v-25.15h5.51Z" fill="#fff"/></g><circle cx="66.43" cy="123.27" r="11.58"/><path d="M75.16,181.56h0c-9.73,0-17.53-7.87-17.53-17.53v-13.69c0-4.83,3.9-8.8,8.8-8.8h0c4.83,0,8.8,3.9,8.8,8.8v31.22h-.06Z"/></g></svg>