<?xml version="1.0" encoding="UTF-8"?><svg id="Layer_1" xmlns="http://www.w3.org/2000/svg" viewBox="0 0 250 250"><path d="M108.24,184.45v23.53h6.96v-10.31c0-3.44,2.66-5.89,6.51-5.98v-6.63c-2.74,0-4.95,.82-6.51,2.46v-2.66c0-4.34,2.82-6.3,6.71-6.14v-6.55h-1.02c-8.47,0-12.65,5.65-12.65,12.28Z" fill="#fff"/><path d="M178.72,195.34v-6.06c1.56,1.64,3.72,2.46,6.51,2.46v-6.59c-3.77-.08-6.51-2.62-6.51-5.98v-3.89h-6.96v20.46c0,6.63,4.13,12.28,12.65,12.28h1.02v-6.55c-3.89,.12-6.71-1.8-6.71-6.14Z" fill="#fff"/><circle cx="193.74" cy="203.73" r="4.67" fill="#fff"/><path d="M137.09,182.53c-7.37,0-13.34,5.89-13.34,13.06s5.98,13.06,13.34,13.06,13.34-5.89,13.34-13.06-5.98-13.06-13.34-13.06Zm0,19.56c-3.56,0-6.38-2.78-6.38-6.51s2.82-6.51,6.38-6.51,6.38,2.82,6.38,6.51-2.78,6.51-6.38,6.51Z" fill="#fff"/><path d="M160.96,186.05v-2.82h-6.75v24.76h6.96v-11.3c0-4.09,2.41-6.38,6.59-6.38v-7.45c-3.15-.12-5.4,.94-6.79,3.19Z" fill="#fff"/><path d="M91.34,182.53c-7.37,0-13.34,5.89-13.34,13.06s5.98,13.06,13.34,13.06,13.34-5.89,13.34-13.06-5.98-13.06-13.34-13.06Zm0,19.56c-3.56,0-6.38-2.78-6.38-6.51s2.78-6.51,6.38-6.51,6.38,2.82,6.38,6.51-2.82,6.51-6.38,6.51Z" fill="#fff"/><path d="M65.47,186.42c-3.52-1.02-5.73-1.8-5.73-4.3,0-2.09,1.51-3.72,3.93-3.72,2.05,0,3.56,1.19,4.67,2.99l5.77-3.64c-1.8-3.97-5.85-6.02-10.23-6.02-6.96,0-11.38,4.99-11.38,10.8,0,4.62,2.78,8.19,9.62,10.19,3.72,1.06,6.1,1.8,6.1,4.75,0,2.78-2.01,4.5-4.91,4.5-3.11,0-5.48-2.01-6.92-3.85l-4.79,4.79c2.58,3.52,6.75,5.73,11.62,5.73,6.96,0,12.28-4.67,12.28-11.5,0-6.34-4.5-9.09-10.03-10.72Z" fill="#fff"/><path d="M94.06,124.09c.46,18.53,15.52,31.51,33.29,31.51,.21,0,.41-.04,.61-.09,24.07-.24,34.66-14.57,36.47-36.33,.57-6.88-.7-11.58-3.36-14.41-1.47-1.56-3.03-2.29-4.22-2.46l-4.08-.95,9.52-47.43c1.15-5.32-2.01-10.68-7.29-12.24-5.89-1.47-11.83,1.96-13.34,7.78l-8.63,29.54-6.8-29.09c-.53-2.7-2.17-5.12-4.5-6.67s-5.24-2.09-7.98-1.51c-5.4,1.15-8.92,7.45-7.57,13.18l4.02,32.97c-3.49-3.48-7.56-4.56-12.28-1.83l-.61,.41c-4.3,2.93-5.16,8.92-2.4,14.37-2.29,.13-4.54,1.08-6.24,2.82l-.41,.45c-3.97,4.09-3.19,11.01,1.76,15.96l4.03,4.02Zm62.48-17.24c.41,.16,.86,.49,1.31,.94,1.72,1.84,2.7,5.32,2.21,11.05-1.68,20.05-11.01,32.5-33.19,32.29-.08,0-.16,.02-.24,.02-13.5-.31-24.93-9.09-27.58-22.11l3.31,3.3c3.97,3.81,10.23,3.72,14.08-.2l.45-.45c3.05-3.19,3.58-7.88,1.59-11.59,.29-.16,.58-.33,.86-.52l.49-.33c1.11-.76,2.04-1.74,2.76-2.87,1.5,.78,3.29,1.47,5.42,2.05l6.18,1.43c-4.58,2.58-7.45,7.37-7.78,14.69-.08,1.23,.86,2.25,2.09,2.33,1.23,.04,2.25-.86,2.33-2.09,.33-6.63,2.91-10.19,7.04-11.75,2.21-.82,4.62-.98,6.75-.78l.53,.08c2.82,.53,3.72-3.68,.9-4.34l-16.99-3.81c-2.47-.67-4.28-1.42-5.57-2.28-.24-.36-.59-.65-1.02-.82-1.88-1.78-1.98-4-1.1-6.93,.65-2.13,1.92-3.23,3.93-3.68,1.31-.29,2.74-.25,4.13,0,.41,.08,.7,.12,.82,.16l25.78,6.02,.49,.16Zm-41.87-60.78c1.6-.33,3.27-.04,4.62,.86,1.35,.9,2.29,2.29,2.62,3.89l8.69,37.1c.06,.91,.65,1.72,1.59,1.98,1.15,.32,2.33-.29,2.7-1.4v-.02s.03-.06,.04-.09l11.01-37.74c.94-3.48,4.46-5.57,7.9-4.71,2.95,.9,4.79,3.97,4.13,7.08l-9.5,47.32-17.11-3.98c-.16-.04-.57-.16-1.15-.25-1.92-.33-3.93-.37-5.89,.04-2.35,.53-4.3,1.73-5.66,3.62l-3.13-4.67-4.96-40.9-.04-.25c-.86-3.44,1.27-7.29,4.13-7.9Zm-14.86,44.04l.45-.33c3.27-1.88,6.02-.45,8.84,3.68l2.34,3.49c.09,.18,.2,.35,.34,.5l4.92,7.34c-.66,3.48-.06,6.54,2.35,9.01-.4,.71-.95,1.34-1.64,1.79l-.49,.29c-2.54,1.72-5.98,1.06-7.69-1.47l-9.66-14.37c-2.62-4.01-2.29-8.19,.25-9.95Zm-8.35,17.11l.41-.45c1.71-1.79,4.49-1.98,6.48-.57l7.19,10.72c1.97,2.88,5.16,4.4,8.38,4.36,1.78,2.14,1.72,5.31-.28,7.35l-.41,.45c-2.13,2.17-5.61,2.21-7.78,.08l-12.28-12.16c-3.4-3.4-3.85-7.57-1.72-9.78Z" fill="#fff"/></svg>